<?xml version="1.0" encoding="UTF-8"?> <svg xmlns="http://www.w3.org/2000/svg" width="46" height="18" viewBox="0 0 46 18" fill="none"><path d="M18.0185 1.52422L12.099 16.9796H8.23246L5.31123 4.65178C5.27915 4.36311 5.18225 4.08772 5.02937 3.85014C4.87638 3.61256 4.67214 3.42021 4.43485 3.29021C3.29688 2.69694 2.09399 2.2665 0.855835 2.00937L0.929467 1.5291H7.1375C7.54918 1.51848 7.94973 1.67673 8.26056 1.97283C8.57138 2.26905 8.7701 2.68177 8.81777 3.13017L10.3497 12.091L14.1474 1.60366H18.0185V1.52422ZM33.1361 11.9309C33.1361 7.84776 28.0241 7.60816 28.0241 5.84704C28.0241 5.28605 28.5357 4.72634 29.5583 4.5662C30.7897 4.41899 32.0338 4.66963 33.1373 5.28722L33.795 2.00448C32.6971 1.5496 31.5358 1.30575 30.3621 1.28345C26.7831 1.28345 24.2299 3.36117 24.2299 6.40675C24.2299 8.64823 26.0562 9.84964 27.4431 10.5695C28.8301 11.2894 29.3385 11.7709 29.3385 12.4907C29.3385 13.532 28.2426 14.0123 27.1478 14.0123C25.8539 14.0216 24.5768 13.6922 23.4225 13.0517L22.7649 16.4138C24.0472 16.9461 25.4074 17.2174 26.7787 17.2145C30.5762 17.2145 33.0591 15.1368 33.1338 11.9309M42.6299 16.9796H45.9938L43.0727 1.5291H39.9284C39.5989 1.52178 39.2753 1.62522 39.001 1.82563C38.7267 2.02594 38.515 2.31365 38.3941 2.64978L32.9176 16.9796H36.7151L37.4454 14.6577H42.1193L42.6299 16.9796ZM38.5403 11.5362L40.4357 5.77248L41.5318 11.5362H38.5403ZM23.2042 1.52422L20.2094 16.9796H16.5588L19.5537 1.5291H23.2042V1.52422Z" fill="#565656"></path></svg> 