<?xml version="1.0" encoding="UTF-8"?> <svg xmlns="http://www.w3.org/2000/svg" width="46" height="22" viewBox="0 0 46 22" fill="none"><mask id="mask0_316_6652" style="mask-type:luminance" maskUnits="userSpaceOnUse" x="0" y="1" width="46" height="21"><path d="M45.6731 1.29199H0.535156V21.2058H45.6731V1.29199Z" fill="white"></path></mask><g mask="url(#mask0_316_6652)"><path d="M45.6731 16.9384H42.8166V10.9521H40.0662V16.9384H37.2097V8.40405H45.6731V16.9384Z" fill="#565656"></path><path fill-rule="evenodd" clip-rule="evenodd" d="M31.6217 16.9386C34.0189 16.9386 35.7992 15.3774 35.7992 13.0108C35.7992 10.7202 34.4857 9.23299 32.2906 9.23299C31.2776 9.23299 30.4417 9.61166 29.812 10.2651C29.9623 8.91445 31.0378 7.92847 32.2219 7.92847C32.4952 7.92847 34.5523 7.92373 34.5523 7.92373L35.7158 5.55933C35.7158 5.55933 33.1329 5.62182 31.9323 5.62182C29.1887 5.67247 27.3358 8.32106 27.3358 11.5376C27.3358 15.2851 29.1431 16.9386 31.6217 16.9386ZM31.6363 11.3272C32.5263 11.3272 33.1433 11.9484 33.1433 13.0105C33.1433 13.9664 32.5952 14.7541 31.6363 14.7562C30.719 14.7562 30.1018 14.0264 30.1018 13.0268C30.1018 11.9644 30.719 11.3272 31.6363 11.3272Z" fill="#565656"></path><path d="M24.8175 14.2457C24.8175 14.2457 24.1929 14.6328 23.26 14.7061C22.1874 14.7404 21.2318 14.012 21.2318 12.7177C21.2318 11.4553 22.0751 10.7318 23.233 10.7318C23.9429 10.7318 24.882 11.2609 24.882 11.2609C24.882 11.2609 25.5693 9.90491 25.9252 9.22668C25.2734 8.69534 24.4052 8.40405 23.3954 8.40405C20.8466 8.40405 18.8724 10.191 18.8724 12.7018C18.8724 15.2446 20.7279 16.9899 23.3954 16.9374C24.1407 16.9074 25.1693 16.6259 25.7963 16.1929L24.8175 14.2457Z" fill="#565656"></path><path d="M0.737427 5.62695L3.05005 9.93748V12.5667L0.740118 16.8687L0.738814 11.2478L0.737427 5.62695Z" fill="#565656"></path><path d="M9.62085 8.36664L11.7878 6.98164L16.2227 6.97729L9.62085 11.1948V8.36664Z" fill="#565656"></path><path d="M9.60344 5.60115L9.61568 11.3081L7.29761 9.82288V1.29199L9.60344 5.60115Z" fill="#565656"></path><path d="M16.2176 6.97919L11.7827 6.98354L9.60344 5.60115L7.29761 1.29199L16.2176 6.97919Z" fill="#565656"></path><path d="M9.61568 16.8924V14.1235L7.29761 12.6665L7.29891 21.2058L9.61568 16.8924Z" fill="#565656"></path><path d="M11.7786 15.5203L3.05005 9.93748L0.737427 5.62695L16.2095 15.5146L11.7786 15.5203Z" fill="#565656"></path><path d="M7.29761 21.2049L9.61442 16.8914L11.776 15.5191L16.2069 15.5134L7.29761 21.2049Z" fill="#565656"></path><path d="M0.737427 16.8688L7.31524 12.667L5.10383 11.2522L3.04737 12.5668L0.737427 16.8688Z" fill="#565656"></path></g></svg> 