<?xml version="1.0" encoding="UTF-8"?> <svg xmlns="http://www.w3.org/2000/svg" width="114" height="22" viewBox="0 0 114 22" fill="none"><path fill-rule="evenodd" clip-rule="evenodd" d="M2.93544 3.15589C1.54419 4.56179 1.54419 6.82452 1.54419 11.35V12.15C1.54419 16.6755 1.54419 18.9383 2.93544 20.3442C4.32667 21.75 6.56586 21.75 11.0442 21.75H11.8359C16.3142 21.75 18.5533 21.75 19.9446 20.3442C21.3358 18.9383 21.3358 16.6755 21.3358 12.15V11.35C21.3358 6.82452 21.3358 4.56179 19.9446 3.15589C18.5533 1.75 16.3142 1.75 11.8359 1.75H11.0442C6.56586 1.75 4.32667 1.75 2.93544 3.15589ZM4.88406 7.83339C4.99127 13.0334 7.56417 16.1585 12.075 16.1585H12.3307V13.1834C13.9883 13.35 15.2417 14.5751 15.7447 16.1585H18.0868C17.4436 13.7917 15.7529 12.4834 14.6974 11.9834C15.7529 11.3667 17.2374 9.8667 17.5919 7.83339H15.4643C15.0024 9.48339 13.6337 10.9834 12.3307 11.125V7.83339H10.203V13.6C8.8836 13.2667 7.21784 11.6501 7.14362 7.83339H4.88406Z" fill="#F7F7F7"></path><path d="M32.6482 15.8601V6.40556H36.5907C37.2985 6.40556 37.891 6.50559 38.368 6.70563C38.8481 6.90568 39.2082 7.18575 39.4483 7.54583C39.6914 7.90592 39.813 8.32294 39.813 8.7969C39.813 9.15698 39.7376 9.4786 39.5868 9.76174C39.436 10.0418 39.2282 10.2742 38.9635 10.4588C38.6989 10.6435 38.3926 10.7727 38.0449 10.8466V10.9389C38.4265 10.9574 38.7789 11.0605 39.102 11.2482C39.4283 11.436 39.6899 11.6976 39.8868 12.033C40.0838 12.3654 40.1823 12.7594 40.1823 13.2149C40.1823 13.7227 40.053 14.1766 39.7945 14.5767C39.536 14.9737 39.162 15.2877 38.6727 15.5185C38.1834 15.7462 37.5894 15.8601 36.8907 15.8601H32.6482ZM34.9334 14.0181H36.346C36.8415 14.0181 37.2062 13.9243 37.4401 13.7365C37.6771 13.5488 37.7956 13.2872 37.7956 12.9517C37.7956 12.7086 37.7386 12.4993 37.6248 12.3239C37.5109 12.1454 37.3493 12.0084 37.14 11.913C36.9308 11.8145 36.6799 11.7653 36.3875 11.7653H34.9334V14.0181ZM34.9334 10.2926H36.1983C36.4476 10.2926 36.6691 10.2511 36.863 10.168C37.0569 10.0849 37.2077 9.96487 37.3155 9.80791C37.4263 9.65095 37.4816 9.46167 37.4816 9.24008C37.4816 8.92308 37.3693 8.67379 37.1446 8.49221C36.92 8.31063 36.6168 8.21984 36.2352 8.21984H34.9334V10.2926ZM47.0562 15.8601L44.0832 11.9361H43.5662V15.8601H41.281V6.40556H43.5662V10.0757H43.9309L46.8577 6.40556H49.7153L46.0729 10.8697L49.9046 15.8601H47.0562ZM59.1041 11.1328C59.1041 12.1731 58.904 13.0548 58.5039 13.7781C58.1038 14.5013 57.5622 15.0507 56.8789 15.4262C56.1988 15.8016 55.4355 15.9894 54.5892 15.9894C53.7397 15.9894 52.9749 15.8001 52.2948 15.4215C51.6146 15.043 51.0745 14.4936 50.6744 13.7735C50.2774 13.0502 50.0789 12.17 50.0789 11.1328C50.0789 10.0926 50.2774 9.21084 50.6744 8.48759C51.0745 7.76434 51.6146 7.21498 52.2948 6.83951C52.9749 6.46404 53.7397 6.2763 54.5892 6.2763C55.4355 6.2763 56.1988 6.46404 56.8789 6.83951C57.5622 7.21498 58.1038 7.76434 58.5039 8.48759C58.904 9.21084 59.1041 10.0926 59.1041 11.1328ZM56.7681 11.1328C56.7681 10.5173 56.6804 9.99718 56.505 9.57247C56.3326 9.14775 56.0834 8.82613 55.7571 8.60762C55.434 8.38911 55.0447 8.27985 54.5892 8.27985C54.1367 8.27985 53.7474 8.38911 53.4212 8.60762C53.095 8.82613 52.8441 9.14775 52.6687 9.57247C52.4964 9.99718 52.4102 10.5173 52.4102 11.1328C52.4102 11.7484 52.4964 12.2685 52.6687 12.6932C52.8441 13.1179 53.095 13.4395 53.4212 13.658C53.7474 13.8766 54.1367 13.9858 54.5892 13.9858C55.0447 13.9858 55.434 13.8766 55.7571 13.658C56.0834 13.4395 56.3326 13.1179 56.505 12.6932C56.6804 12.2685 56.7681 11.7484 56.7681 11.1328ZM60.4382 15.8601V6.40556H62.7234V10.2003H66.4489V6.40556H68.7294V15.8601H66.4489V12.0607H62.7234V15.8601H60.4382ZM69.8535 8.26139V6.40556H77.8447V8.26139H74.9778V15.8601H72.725V8.26139H69.8535ZM79.8251 15.8601H77.3692L80.5592 6.40556H83.6014L86.7914 15.8601H84.3354L82.1149 8.78766H82.041L79.8251 15.8601ZM79.4974 12.1392H84.6309V13.875H79.4974V12.1392ZM93.5845 15.8601L90.6115 11.9361H90.0945V15.8601H87.8093V6.40556H90.0945V10.0757H90.4592L93.386 6.40556H96.2436L92.6012 10.8697L96.4329 15.8601H93.5845ZM96.958 8.26139V6.40556H104.949V8.26139H102.082V15.8601H99.8295V8.26139H96.958ZM106.065 15.8601V6.40556H112.658V8.26139H108.35V10.2003H112.321V12.0607H108.35V14.0043H112.658V15.8601H106.065Z" fill="white"></path></svg> 