<?xml version="1.0" encoding="UTF-8"?> <svg xmlns="http://www.w3.org/2000/svg" width="107" height="24" viewBox="0 0 107 24" fill="none"><path fill-rule="evenodd" clip-rule="evenodd" d="M22.42 12.75C22.42 18.8252 17.4952 23.75 11.4201 23.75C5.34492 23.75 0.420044 18.8252 0.420044 12.75C0.420044 6.67487 5.34492 1.75 11.4201 1.75C17.4952 1.75 22.42 6.67487 22.42 12.75ZM11.8156 9.87056C10.7457 10.3156 8.60739 11.2367 5.40066 12.6338C4.87993 12.8409 4.60714 13.0434 4.58233 13.2415C4.54034 13.5763 4.9596 13.7081 5.5305 13.8876C5.60814 13.9121 5.68857 13.9373 5.77103 13.9641C6.33268 14.1467 7.08817 14.3602 7.48095 14.3688C7.83719 14.3765 8.23484 14.2296 8.67386 13.9281C11.67 11.9057 13.2166 10.8834 13.3137 10.8613C13.3821 10.8458 13.4772 10.8262 13.5415 10.8834C13.6057 10.9406 13.5994 11.0489 13.5927 11.0779C13.5511 11.2548 11.9071 12.7834 11.0551 13.5754C10.789 13.8228 10.6002 13.9983 10.5617 14.0384C10.4754 14.128 10.3875 14.2127 10.3031 14.2941C9.78137 14.7971 9.39004 15.1743 10.3247 15.7902C10.774 16.0863 11.1335 16.3312 11.4921 16.5754C11.8837 16.842 12.2742 17.1081 12.7796 17.4393C12.9083 17.5237 13.0313 17.6113 13.1511 17.6967C13.6068 18.0217 14.0163 18.3135 14.5222 18.2669C14.8161 18.2399 15.1197 17.9636 15.2738 17.1393C15.6382 15.1911 16.3546 10.9701 16.5201 9.23078C16.5346 9.07838 16.5165 8.88335 16.5017 8.79773C16.487 8.71213 16.4565 8.59014 16.3451 8.49985C16.2134 8.39291 16.0099 8.37036 15.9189 8.37197C15.5051 8.37924 14.8704 8.59995 11.8156 9.87056Z" fill="white"></path><path d="M33.6344 9.26139V7.40556H41.6255V9.26139H38.7587V16.8601H36.5059V9.26139H33.6344ZM42.7416 16.8601V7.40556H49.3339V9.26139H45.0267V11.2003H48.9969V13.0607H45.0267V15.0043H49.3339V16.8601H42.7416ZM50.765 16.8601V7.40556H53.0502V15.0043H56.9834V16.8601H50.765ZM58.1664 16.8601V7.40556H64.7587V9.26139H60.4515V11.2003H64.4217V13.0607H60.4515V15.0043H64.7587V16.8601H58.1664ZM72.3944 10.494C72.342 10.3001 72.2651 10.1293 72.1635 9.98156C72.062 9.83075 71.9373 9.70303 71.7896 9.59839C71.6419 9.49375 71.4726 9.41527 71.2818 9.36295C71.091 9.30755 70.8817 9.27985 70.654 9.27985C70.1954 9.27985 69.7984 9.39065 69.4629 9.61224C69.1305 9.83383 68.8735 10.157 68.692 10.5817C68.5104 11.0033 68.4196 11.5158 68.4196 12.119C68.4196 12.7253 68.5073 13.2423 68.6827 13.6701C68.8581 14.0979 69.1121 14.4241 69.4444 14.6488C69.7768 14.8735 70.18 14.9858 70.654 14.9858C71.0725 14.9858 71.4264 14.9181 71.7157 14.7827C72.0081 14.6442 72.2297 14.4488 72.3805 14.1964C72.5313 13.944 72.6067 13.647 72.6067 13.3054L73.0314 13.3562H70.7324V11.6897H74.8088V12.9407C74.8088 13.7871 74.6287 14.5119 74.2687 15.1151C73.9117 15.7183 73.4192 16.1815 72.7914 16.5046C72.1666 16.8278 71.448 16.9894 70.6355 16.9894C69.7337 16.9894 68.9412 16.7939 68.258 16.4031C67.5748 16.0122 67.0423 15.4552 66.6607 14.7319C66.2791 14.0056 66.0883 13.1438 66.0883 12.1467C66.0883 11.3711 66.2037 10.6833 66.4345 10.0831C66.6653 9.4799 66.9869 8.96901 67.3993 8.55045C67.8148 8.13189 68.2949 7.81489 68.8397 7.59945C69.3875 7.38402 69.9769 7.2763 70.6078 7.2763C71.1556 7.2763 71.665 7.35478 72.1358 7.51174C72.6098 7.6687 73.0284 7.89029 73.3915 8.17651C73.7578 8.46274 74.0548 8.80282 74.2825 9.19676C74.5103 9.59069 74.6518 10.0231 74.7072 10.494H72.3944ZM76.1556 16.8601V7.40556H80.0612C80.769 7.40556 81.38 7.53328 81.8939 7.78873C82.411 8.0411 82.8095 8.40426 83.0896 8.87822C83.3697 9.3491 83.5097 9.90769 83.5097 10.554C83.5097 11.2095 83.3666 11.7666 83.0804 12.2252C82.7941 12.6807 82.3879 13.0284 81.8616 13.2685C81.3353 13.5055 80.7121 13.624 79.9919 13.624H77.5221V11.8235H79.5672C79.9119 11.8235 80.1997 11.7789 80.4305 11.6897C80.6644 11.5973 80.8414 11.4588 80.9614 11.2742C81.0814 11.0864 81.1414 10.8464 81.1414 10.554C81.1414 10.2616 81.0814 10.02 80.9614 9.82921C80.8414 9.63532 80.6644 9.49067 80.4305 9.39526C80.1966 9.29678 79.9088 9.24754 79.5672 9.24754H78.4408V16.8601H76.1556ZM81.4784 12.5391L83.8328 16.8601H81.3399L79.0317 12.5391H81.4784ZM86.8082 16.8601H84.3522L87.5422 7.40556H90.5844L93.7744 16.8601H91.3185L89.0979 9.78766H89.0241L86.8082 16.8601ZM86.4804 13.1392H91.6139V14.875H86.4804V13.1392ZM94.7924 7.40556H97.6223L100.023 13.2593H100.134L102.534 7.40556H105.364V16.8601H103.139V11.0526H103.06L100.789 16.8001H99.3673L97.096 11.0203H97.0175V16.8601H94.7924V7.40556Z" fill="white"></path></svg> 