<?xml version="1.0" encoding="UTF-8"?> <svg xmlns="http://www.w3.org/2000/svg" width="96" height="20" viewBox="0 0 96 20" fill="none"><path d="M21.7704 3.25748C20.1936 2.54309 18.5289 2.03629 16.819 1.75C16.585 2.16393 16.3733 2.5898 16.1848 3.02584C14.3633 2.75424 12.5111 2.75424 10.6897 3.02584C10.501 2.58985 10.2893 2.16398 10.0554 1.75C8.34439 2.0387 6.67866 2.54671 5.10026 3.2612C1.96671 7.84901 1.11725 12.3229 1.54198 16.7332C3.37706 18.0749 5.43104 19.0953 7.61464 19.75C8.10631 19.0956 8.54139 18.4014 8.91524 17.6746C8.20517 17.4122 7.51981 17.0885 6.86711 16.7071C7.0389 16.5838 7.2069 16.4568 7.36924 16.3335C9.26843 17.2173 11.3413 17.6755 13.44 17.6755C15.5388 17.6755 17.6116 17.2173 19.5109 16.3335C19.675 16.4661 19.8431 16.5931 20.013 16.7071C19.359 17.0891 18.6724 17.4135 17.9611 17.6765C18.3344 18.403 18.7696 19.0966 19.2617 19.75C21.4472 19.0979 23.5027 18.0781 25.3381 16.735C25.8365 11.6205 24.4868 7.18774 21.7704 3.25748ZM9.45323 14.0209C8.26966 14.0209 7.29185 12.958 7.29185 11.6504C7.29185 10.3428 8.23568 9.27054 9.44946 9.27054C10.6632 9.27054 11.6335 10.3428 11.6128 11.6504C11.592 12.958 10.6595 14.0209 9.45323 14.0209ZM17.4268 14.0209C16.2413 14.0209 15.2673 12.958 15.2673 11.6504C15.2673 10.3428 16.2111 9.27054 17.4268 9.27054C18.6424 9.27054 19.6052 10.3428 19.5844 11.6504C19.5637 12.958 18.6331 14.0209 17.4268 14.0209Z" fill="#F7F7F7"></path><path d="M40.0497 14.8601H36.555V5.40556H40.0451C41.0084 5.40556 41.8378 5.59484 42.5334 5.97339C43.232 6.34886 43.7706 6.89053 44.1491 7.59839C44.5277 8.30317 44.7169 9.14645 44.7169 10.1282C44.7169 11.1131 44.5277 11.9594 44.1491 12.6673C43.7736 13.3751 43.2366 13.9183 42.538 14.2969C41.8393 14.6724 41.0099 14.8601 40.0497 14.8601ZM38.8402 12.912H39.962C40.4913 12.912 40.9391 12.8227 41.3054 12.6442C41.6747 12.4626 41.9532 12.1687 42.141 11.7625C42.3318 11.3531 42.4272 10.8084 42.4272 10.1282C42.4272 9.44806 42.3318 8.90639 42.141 8.50322C41.9501 8.09697 41.6685 7.80459 41.2961 7.62609C40.9268 7.44451 40.4713 7.35371 39.9297 7.35371H38.8402V12.912ZM48.3363 5.40556V14.8601H46.0511V5.40556H48.3363ZM54.8813 8.24008C54.8505 7.90154 54.7135 7.6384 54.4704 7.45066C54.2303 7.25985 53.8872 7.16444 53.4409 7.16444C53.1455 7.16444 52.8993 7.20291 52.7023 7.27985C52.5053 7.35679 52.3576 7.46297 52.2591 7.59839C52.1606 7.73073 52.1098 7.88307 52.1068 8.05542C52.1006 8.19699 52.1283 8.32164 52.1899 8.42935C52.2545 8.53707 52.3468 8.63248 52.4669 8.71558C52.59 8.79559 52.7377 8.86638 52.91 8.92793C53.0824 8.98949 53.2763 9.04335 53.4917 9.08951L54.3042 9.27417C54.772 9.37573 55.1844 9.51115 55.5414 9.68042C55.9015 9.84969 56.2031 10.0513 56.4463 10.2852C56.6925 10.5191 56.8787 10.7884 57.0049 11.0931C57.131 11.3977 57.1957 11.7394 57.1987 12.1179C57.1957 12.715 57.0449 13.2274 56.7463 13.6552C56.4478 14.083 56.0185 14.4108 55.4583 14.6385C54.9013 14.8663 54.2288 14.9801 53.4409 14.9801C52.65 14.9801 51.9606 14.8616 51.3728 14.6247C50.7849 14.3877 50.3279 14.0276 50.0017 13.5444C49.6754 13.0612 49.5077 12.4503 49.4985 11.7117H51.6867C51.7051 12.0164 51.7867 12.2703 51.9313 12.4734C52.076 12.6765 52.2745 12.8304 52.5269 12.935C52.7823 13.0397 53.0778 13.092 53.4132 13.092C53.721 13.092 53.9826 13.0504 54.198 12.9674C54.4165 12.8843 54.5843 12.7688 54.7012 12.6211C54.8182 12.4734 54.8782 12.3041 54.8813 12.1133C54.8782 11.9348 54.8228 11.7825 54.7151 11.6563C54.6074 11.527 54.4412 11.4162 54.2165 11.3239C53.9949 11.2285 53.7118 11.1408 53.3671 11.0607L52.3791 10.8299C51.5605 10.6422 50.9157 10.339 50.4448 9.92048C49.974 9.49884 49.7401 8.92947 49.7431 8.21238C49.7401 7.62763 49.897 7.1152 50.214 6.67509C50.531 6.23499 50.9696 5.89183 51.5297 5.64562C52.0898 5.39941 52.7285 5.2763 53.4455 5.2763C54.178 5.2763 54.8136 5.40095 55.3522 5.65023C55.8938 5.89645 56.3139 6.24268 56.6125 6.68894C56.911 7.1352 57.0633 7.65225 57.0695 8.24008H54.8813ZM66.9349 8.83099H64.6267C64.5959 8.59401 64.5328 8.38011 64.4374 8.1893C64.342 7.99848 64.2158 7.83537 64.0588 7.69995C63.9019 7.56453 63.7157 7.46143 63.5002 7.39065C63.2879 7.31678 63.0524 7.27985 62.7939 7.27985C62.3353 7.27985 61.9399 7.39219 61.6075 7.61685C61.2782 7.84152 61.0243 8.16622 60.8458 8.59093C60.6703 9.01565 60.5826 9.52961 60.5826 10.1328C60.5826 10.7607 60.6719 11.287 60.8504 11.7117C61.032 12.1333 61.2859 12.4518 61.6121 12.6673C61.9414 12.8796 62.3307 12.9858 62.7801 12.9858C63.0324 12.9858 63.2617 12.9535 63.4679 12.8889C63.6772 12.8242 63.8603 12.7304 64.0173 12.6073C64.1773 12.4811 64.3081 12.3287 64.4097 12.1502C64.5143 11.9687 64.5866 11.764 64.6267 11.5362L66.9349 11.5501C66.8949 11.9687 66.7733 12.3811 66.5702 12.7873C66.3701 13.1936 66.0947 13.5644 65.7438 13.8999C65.393 14.2323 64.9652 14.4969 64.4605 14.6939C63.9588 14.8909 63.3833 14.9894 62.7339 14.9894C61.8783 14.9894 61.112 14.8016 60.4349 14.4262C59.7609 14.0476 59.2285 13.4967 58.8376 12.7735C58.4467 12.0502 58.2513 11.17 58.2513 10.1328C58.2513 9.09259 58.4498 8.21084 58.8468 7.48759C59.2438 6.76434 59.7809 6.21498 60.458 5.83951C61.1351 5.46404 61.8937 5.2763 62.7339 5.2763C63.3063 5.2763 63.8357 5.35632 64.322 5.51636C64.8082 5.67332 65.236 5.90414 65.6053 6.20883C65.9747 6.51044 66.2747 6.8813 66.5056 7.3214C66.7364 7.7615 66.8795 8.2647 66.9349 8.83099ZM77.1662 10.1328C77.1662 11.1731 76.9661 12.0548 76.566 12.7781C76.1659 13.5013 75.6243 14.0507 74.941 14.4262C74.2609 14.8016 73.4976 14.9894 72.6512 14.9894C71.8018 14.9894 71.037 14.8001 70.3569 14.4215C69.6767 14.043 69.1366 13.4936 68.7365 12.7735C68.3395 12.0502 68.1409 11.17 68.1409 10.1328C68.1409 9.09259 68.3395 8.21084 68.7365 7.48759C69.1366 6.76434 69.6767 6.21498 70.3569 5.83951C71.037 5.46404 71.8018 5.2763 72.6512 5.2763C73.4976 5.2763 74.2609 5.46404 74.941 5.83951C75.6243 6.21498 76.1659 6.76434 76.566 7.48759C76.9661 8.21084 77.1662 9.09259 77.1662 10.1328ZM74.8302 10.1328C74.8302 9.5173 74.7425 8.99718 74.5671 8.57247C74.3947 8.14775 74.1454 7.82613 73.8192 7.60762C73.4961 7.38911 73.1067 7.27985 72.6512 7.27985C72.1988 7.27985 71.8095 7.38911 71.4833 7.60762C71.157 7.82613 70.9062 8.14775 70.7308 8.57247C70.5584 8.99718 70.4723 9.5173 70.4723 10.1328C70.4723 10.7484 70.5584 11.2685 70.7308 11.6932C70.9062 12.1179 71.157 12.4395 71.4833 12.658C71.8095 12.8766 72.1988 12.9858 72.6512 12.9858C73.1067 12.9858 73.4961 12.8766 73.8192 12.658C74.1454 12.4395 74.3947 12.1179 74.5671 11.6932C74.7425 11.2685 74.8302 10.7484 74.8302 10.1328ZM78.5003 14.8601V5.40556H82.4059C83.1137 5.40556 83.7246 5.53328 84.2386 5.78873C84.7557 6.0411 85.1542 6.40426 85.4343 6.87822C85.7143 7.3491 85.8544 7.90769 85.8544 8.554C85.8544 9.20954 85.7113 9.76659 85.425 10.2252C85.1388 10.6807 84.7326 11.0284 84.2063 11.2685C83.68 11.5055 83.0568 11.624 82.3366 11.624H79.8668V9.82353H81.9119C82.2566 9.82353 82.5444 9.7789 82.7752 9.68965C83.0091 9.59732 83.186 9.45883 83.3061 9.27417C83.4261 9.08643 83.4861 8.84638 83.4861 8.554C83.4861 8.26162 83.4261 8.02003 83.3061 7.82921C83.186 7.63532 83.0091 7.49067 82.7752 7.39526C82.5413 7.29678 82.2535 7.24754 81.9119 7.24754H80.7855V14.8601H78.5003ZM83.8231 10.5391L86.1775 14.8601H83.6846L81.3764 10.5391H83.8231ZM90.6024 14.8601H87.1077V5.40556H90.5978C91.5611 5.40556 92.3905 5.59484 93.0861 5.97339C93.7847 6.34886 94.3233 6.89053 94.7019 7.59839C95.0804 8.30317 95.2697 9.14645 95.2697 10.1282C95.2697 11.1131 95.0804 11.9594 94.7019 12.6673C94.3264 13.3751 93.7893 13.9183 93.0907 14.2969C92.3921 14.6724 91.5626 14.8601 90.6024 14.8601ZM89.3929 12.912H90.5147C91.0441 12.912 91.4919 12.8227 91.8581 12.6442C92.2274 12.4626 92.5059 12.1687 92.6937 11.7625C92.8845 11.3531 92.9799 10.8084 92.9799 10.1282C92.9799 9.44806 92.8845 8.90639 92.6937 8.50322C92.5029 8.09697 92.2213 7.80459 91.8489 7.62609C91.4796 7.44451 91.0241 7.35371 90.4824 7.35371H89.3929V12.912Z" fill="white"></path></svg> 