<?xml version="1.0" encoding="UTF-8"?> <svg xmlns="http://www.w3.org/2000/svg" width="33" height="22" viewBox="0 0 33 22" fill="none"><path d="M12.021 11.2485C11.9987 8.08299 13.4124 5.07237 15.8722 3.05791C11.5757 0.0583538 5.66511 0.965965 2.48163 5.12771C-0.857692 9.45548 -0.111911 15.6428 4.17355 19.0517C7.54626 21.7746 12.3215 21.9296 15.8722 19.4391C13.4012 17.4248 11.9876 14.4252 12.021 11.2485ZM30.1757 5.12771C26.9922 0.977034 21.0817 0.0583538 16.7851 3.05791C19.2673 5.0613 20.7032 8.07192 20.7032 11.2485C20.7032 14.4252 19.2673 17.4248 16.7851 19.4391C18.4325 20.5903 20.3915 21.1991 22.4062 21.1991C25.0443 21.1769 27.5599 20.1143 29.4077 18.2549C31.2554 16.3844 32.2795 13.8718 32.2572 11.2485C32.2572 9.03487 31.5337 6.8876 30.1757 5.12771ZM16.3287 3.4453C13.9577 5.34908 12.5775 8.21581 12.5775 11.2485C12.5775 14.2813 13.9577 17.148 16.3287 19.0517C18.7108 17.148 20.0799 14.2813 20.0799 11.2485C20.0799 8.21581 18.6996 5.34908 16.3287 3.4453Z" fill="#565656"></path></svg> 