<?xml version="1.0" encoding="UTF-8"?> <svg xmlns="http://www.w3.org/2000/svg" width="45" height="14" viewBox="0 0 45 14" fill="none"><path d="M0.0999756 0.555483H4.25215C4.62959 0.555483 5.76201 0.426442 6.26527 2.23311C6.64281 3.39456 7.14607 5.20124 7.90097 7.91128H8.15268C8.90757 5.0722 9.53674 3.13648 9.78837 2.23311C10.2916 0.426442 11.5499 0.555483 12.0532 0.555483H15.9537V12.9442H11.9274V5.58845H11.6757L9.53674 12.9442H6.5169L4.37796 5.58845H4.00042V12.9442H0.0999756M17.5894 0.555483H21.6157V7.91128H21.9933L24.6356 1.84599C25.1389 0.684523 26.2712 0.555483 26.2712 0.555483H30.0459V12.9442H26.0196V5.58845H25.7679L23.1256 11.6537C22.6224 12.8152 21.3642 12.9442 21.3642 12.9442H17.5894M35.4564 9.20179V12.9442H31.6818V6.49174H44.0124C43.5091 8.04032 41.7475 9.20179 39.7344 9.20179" fill="#565656"></path><path d="M44.262 5.71742C44.7653 3.39451 43.2554 0.55542 39.9839 0.55542H31.4279C31.6796 3.26546 33.9444 5.71742 36.3351 5.71742" fill="url(#paint0_linear_316_6648)"></path><defs><linearGradient id="paint0_linear_316_6648" x1="22.2273" y1="0.553384" x2="22.2273" y2="12.9442" gradientUnits="userSpaceOnUse"><stop stop-color="#565656"></stop><stop offset="1" stop-color="#565656"></stop></linearGradient></defs></svg> 